<?xml version="1.0" encoding="UTF-8" standalone="no"?>
<!DOCTYPE svg PUBLIC "-//W3C//DTD SVG 1.1//EN"
 "http://www.w3.org/Graphics/SVG/1.1/DTD/svg11.dtd">
<!-- Generated by graphviz version 2.43.0 (0)
 -->
<!-- Title: packages Pages: 1 -->
<svg width="964pt" height="44pt"
 viewBox="0.00 0.00 963.50 44.00" xmlns="http://www.w3.org/2000/svg" xmlns:xlink="http://www.w3.org/1999/xlink">
<g id="graph0" class="graph" transform="scale(1 1) rotate(0) translate(4 40)">
<title>packages</title>
<polygon fill="white" stroke="transparent" points="-4,4 -4,-40 959.5,-40 959.5,4 -4,4"/>
<!-- __about__ -->
<g id="node1" class="node">
<title>__about__</title>
<polygon fill="none" stroke="black" points="84,-36 0,-36 0,0 84,0 84,-36"/>
<text text-anchor="middle" x="42" y="-14.3" font-family="Times,serif" font-size="14.00">__about__</text>
</g>
<!-- __init__ -->
<g id="node2" class="node">
<title>__init__</title>
<polygon fill="none" stroke="black" points="170,-36 102,-36 102,0 170,0 170,-36"/>
<text text-anchor="middle" x="136" y="-14.3" font-family="Times,serif" font-size="14.00">__init__</text>
</g>
<!-- context -->
<g id="node3" class="node">
<title>context</title>
<polygon fill="none" stroke="black" points="258,-36 188,-36 188,0 258,0 258,-36"/>
<text text-anchor="middle" x="223" y="-14.3" font-family="Times,serif" font-size="14.00">context</text>
</g>
<!-- dask -->
<g id="node4" class="node">
<title>dask</title>
<polygon fill="none" stroke="black" points="330,-36 276,-36 276,0 330,0 330,-36"/>
<text text-anchor="middle" x="303" y="-14.3" font-family="Times,serif" font-size="14.00">dask</text>
</g>
<!-- executor -->
<g id="node5" class="node">
<title>executor</title>
<polygon fill="none" stroke="black" points="427.5,-36 348.5,-36 348.5,0 427.5,0 427.5,-36"/>
<text text-anchor="middle" x="388" y="-14.3" font-family="Times,serif" font-size="14.00">executor</text>
</g>
<!-- job -->
<g id="node6" class="node">
<title>job</title>
<polygon fill="none" stroke="black" points="500,-36 446,-36 446,0 500,0 500,-36"/>
<text text-anchor="middle" x="473" y="-14.3" font-family="Times,serif" font-size="14.00">job</text>
</g>
<!-- k8s -->
<g id="node7" class="node">
<title>k8s</title>
<polygon fill="none" stroke="black" points="572,-36 518,-36 518,0 572,0 572,-36"/>
<text text-anchor="middle" x="545" y="-14.3" font-family="Times,serif" font-size="14.00">k8s</text>
</g>
<!-- main -->
<g id="node8" class="node">
<title>main</title>
<polygon fill="none" stroke="black" points="644,-36 590,-36 590,0 644,0 644,-36"/>
<text text-anchor="middle" x="617" y="-14.3" font-family="Times,serif" font-size="14.00">main</text>
</g>
<!-- report -->
<g id="node9" class="node">
<title>report</title>
<polygon fill="none" stroke="black" points="724,-36 662,-36 662,0 724,0 724,-36"/>
<text text-anchor="middle" x="693" y="-14.3" font-family="Times,serif" font-size="14.00">report</text>
</g>
<!-- retry -->
<g id="node10" class="node">
<title>retry</title>
<polygon fill="none" stroke="black" points="796,-36 742,-36 742,0 796,0 796,-36"/>
<text text-anchor="middle" x="769" y="-14.3" font-family="Times,serif" font-size="14.00">retry</text>
</g>
<!-- tool -->
<g id="node11" class="node">
<title>tool</title>
<polygon fill="none" stroke="black" points="868,-36 814,-36 814,0 868,0 868,-36"/>
<text text-anchor="middle" x="841" y="-14.3" font-family="Times,serif" font-size="14.00">tool</text>
</g>
<!-- version -->
<g id="node12" class="node">
<title>version</title>
<polygon fill="none" stroke="black" points="955.5,-36 886.5,-36 886.5,0 955.5,0 955.5,-36"/>
<text text-anchor="middle" x="921" y="-14.3" font-family="Times,serif" font-size="14.00">version</text>
</g>
</g>
</svg>
